<?xml version="1.0" standalone="no"?>
<!DOCTYPE svg PUBLIC "-//W3C//DTD SVG 20010904//EN"
 "http://www.w3.org/TR/2001/REC-SVG-20010904/DTD/svg10.dtd">
<svg version="1.0" xmlns="http://www.w3.org/2000/svg"
 width="512.000000pt" height="512.000000pt" viewBox="0 0 512.000000 512.000000"
 preserveAspectRatio="xMidYMid meet">

<g transform="translate(0.000000,512.000000) scale(0.100000,-0.100000)"
fill="#000000" stroke="none">
<path d="M1900 5104 c-223 -48 -408 -236 -456 -464 -30 -140 -3 -301 72 -426
27 -45 172 -197 575 -600 l539 -539 539 539 c571 571 590 593 632 726 67 215
11 440 -150 601 -187 187 -451 230 -691 112 -61 -30 -99 -60 -202 -161 l-128
-125 -127 125 c-104 101 -142 131 -203 161 -128 63 -264 81 -400 51z"/>
<path d="M822 4040 c-110 -29 -187 -75 -273 -160 -161 -160 -215 -376 -149
-595 34 -110 75 -171 204 -303 l119 -122 -125 -128 c-141 -143 -186 -217 -214
-352 -52 -243 71 -515 289 -638 183 -105 423 -103 603 4 45 27 199 174 603
578 l541 541 -537 536 c-566 564 -589 584 -723 629 -94 32 -242 37 -338 10z"/>
<path d="M4154 4046 c-75 -17 -172 -65 -239 -116 -27 -22 -281 -270 -563 -552
l-512 -513 552 -551 c462 -460 563 -555 613 -581 335 -172 735 -12 852 342 22
66 26 99 27 185 0 195 -44 289 -223 472 l-124 128 119 122 c66 68 134 148 151
178 106 187 105 427 -2 605 -72 120 -185 212 -323 262 -84 31 -236 40 -328 19z"/>
<path d="M2084 2108 c-596 -599 -590 -592 -634 -764 -77 -302 93 -606 397
-711 112 -38 254 -38 366 1 112 38 176 82 305 209 l112 112 113 -112 c61 -61
138 -127 169 -147 147 -93 342 -117 501 -63 304 105 474 409 397 711 -44 172
-38 165 -634 764 -297 298 -543 542 -546 542 -3 0 -249 -244 -546 -542z"/>
<path d="M1085 1370 c-27 -5 -77 -9 -111 -9 l-61 -1 -104 -107 c-388 -400
-547 -717 -575 -1151 l-7 -102 151 0 152 0 0 43 c0 145 48 354 114 492 79 168
165 283 357 480 l126 130 7 118 c3 64 5 116 4 116 -2 -1 -25 -5 -53 -9z"/>
</g>
</svg>
